<svg xmlns="http://www.w3.org/2000/svg" width="28" height="36" viewBox="-14.0 -18.0 28 36">
  <rect x="-14.00" y="-18.00" width="28.00" height="36.00" rx="2.00" fill="#efeae5" stroke="#5d5a57" stroke-width="0.8"/>
  <rect x="-13.60" y="-17.60" width="27.20" height="1.80" rx="0.90" fill="#e05263" stroke="none" stroke-width="0.8"/>
  <rect x="-13.60" y="15.80" width="27.20" height="1.80" rx="0.90" fill="#e05263" stroke="none" stroke-width="0.8"/>
  <line x1="-12.00" y1="-6.00" x2="12.00" y2="-6.00" stroke="#ffffff" stroke-width="0.7" stroke-dasharray="2.4,1.8"/>
  <line x1="-12.00" y1="6.00" x2="12.00" y2="6.00" stroke="#ffffff" stroke-width="0.7" stroke-dasharray="2.4,1.8"/>
  <rect x="-12.00" y="-14.50" width="5.00" height="3" fill="#e05263"/>
  <rect x="-12.00" y="11.50" width="5.00" height="3" fill="#e05263"/>
  <rect x="-7.00" y="-14.50" width="5.00" height="3" fill="#f2f2f2"/>
  <rect x="-7.00" y="11.50" width="5.00" height="3" fill="#f2f2f2"/>
  <rect x="-2.00" y="-14.50" width="5.00" height="3" fill="#e05263"/>
  <rect x="-2.00" y="11.50" width="5.00" height="3" fill="#e05263"/>
  <rect x="3.00" y="-14.50" width="5.00" height="3" fill="#f2f2f2"/>
  <rect x="3.00" y="11.50" width="5.00" height="3" fill="#f2f2f2"/>
  <rect x="8.00" y="-14.50" width="4.00" height="3" fill="#e05263"/>
  <rect x="8.00" y="11.50" width="4.00" height="3" fill="#e05263"/>
</svg>
