<svg xmlns="http://www.w3.org/2000/svg" width="120" height="72" viewBox="-60.0 -36.0 120 72">
  <path d="M -60.00 -23.70 L -59.00 -23.71 L -58.00 -23.73 L -57.00 -23.77 L -56.00 -23.82 L -55.00 -23.89 L -54.00 -23.97 L -53.00 -24.07 L -52.00 -24.18 L -51.00 -24.30 L -50.00 -24.44 L -49.00 -24.59 L -48.00 -24.75 L -47.00 -24.93 L -46.00 -25.11 L -45.00 -25.31 L -44.00 -25.52 L -43.00 -25.74 L -42.00 -25.97 L -41.00 -26.20 L -40.00 -26.45 L -39.00 -26.70 L -38.00 -26.96 L -37.00 -27.23 L -36.00 -27.50 L -35.00 -27.78 L -34.00 -28.06 L -33.00 -28.34 L -32.00 -28.63 L -31.00 -28.91 L -30.00 -29.20 L -29.00 -29.49 L -28.00 -29.77 L -27.00 -30.06 L -26.00 -30.34 L -25.00 -30.62 L -24.00 -30.90 L -23.00 -31.17 L -22.00 -31.44 L -21.00 -31.70 L -20.00 -31.95 L -19.00 -32.20 L -18.00 -32.43 L -17.00 -32.66 L -16.00 -32.88 L -15.00 -33.09 L -14.00 -33.29 L -13.00 -33.47 L -12.00 -33.65 L -11.00 -33.81 L -10.00 -33.96 L -9.00 -34.10 L -8.00 -34.22 L -7.00 -34.33 L -6.00 -34.43 L -5.00 -34.51 L -4.00 -34.58 L -3.00 -34.63 L -2.00 -34.67 L -1.00 -34.69 L 0.00 -34.70 L 1.00 -34.69 L 2.00 -34.67 L 3.00 -34.63 L 4.00 -34.58 L 5.00 -34.51 L 6.00 -34.43 L 7.00 -34.33 L 8.00 -34.22 L 9.00 -34.10 L 10.00 -33.96 L 11.00 -33.81 L 12.00 -33.65 L 13.00 -33.47 L 14.00 -33.29 L 15.00 -33.09 L 16.00 -32.88 L 17.00 -32.66 L 18.00 -32.43 L 19.00 -32.20 L 20.00 -31.95 L 21.00 -31.70 L 22.00 -31.44 L 23.00 -31.17 L 24.00 -30.90 L 25.00 -30.62 L 26.00 -30.34 L 27.00 -30.06 L 28.00 -29.77 L 29.00 -29.49 L 30.00 -29.20 L 31.00 -28.91 L 32.00 -28.63 L 33.00 -28.34 L 34.00 -28.06 L 35.00 -27.78 L 36.00 -27.50 L 37.00 -27.23 L 38.00 -26.96 L 39.00 -26.70 L 40.00 -26.45 L 41.00 -26.20 L 42.00 -25.97 L 43.00 -25.74 L 44.00 -25.52 L 45.00 -25.31 L 46.00 -25.11 L 47.00 -24.93 L 48.00 -24.75 L 49.00 -24.59 L 50.00 -24.44 L 51.00 -24.30 L 52.00 -24.18 L 53.00 -24.07 L 54.00 -23.97 L 55.00 -23.89 L 56.00 -23.82 L 57.00 -23.77 L 58.00 -23.73 L 59.00 -23.71 L 60.00 -23.70 L 60.00 34.70 L 59.00 34.69 L 58.00 34.67 L 57.00 34.63 L 56.00 34.58 L 55.00 34.51 L 54.00 34.43 L 53.00 34.33 L 52.00 34.22 L 51.00 34.10 L 50.00 33.96 L 49.00 33.81 L 48.00 33.65 L 47.00 33.47 L 46.00 33.29 L 45.00 33.09 L 44.00 32.88 L 43.00 32.66 L 42.00 32.43 L 41.00 32.20 L 40.00 31.95 L 39.00 31.70 L 38.00 31.44 L 37.00 31.17 L 36.00 30.90 L 35.00 30.62 L 34.00 30.34 L 33.00 30.06 L 32.00 29.77 L 31.00 29.49 L 30.00 29.20 L 29.00 28.91 L 28.00 28.63 L 27.00 28.34 L 26.00 28.06 L 25.00 27.78 L 24.00 27.50 L 23.00 27.23 L 22.00 26.96 L 21.00 26.70 L 20.00 26.45 L 19.00 26.20 L 18.00 25.97 L 17.00 25.74 L 16.00 25.52 L 15.00 25.31 L 14.00 25.11 L 13.00 24.93 L 12.00 24.75 L 11.00 24.59 L 10.00 24.44 L 9.00 24.30 L 8.00 24.18 L 7.00 24.07 L 6.00 23.97 L 5.00 23.89 L 4.00 23.82 L 3.00 23.77 L 2.00 23.73 L 1.00 23.71 L 0.00 23.70 L -1.00 23.71 L -2.00 23.73 L -3.00 23.77 L -4.00 23.82 L -5.00 23.89 L -6.00 23.97 L -7.00 24.07 L -8.00 24.18 L -9.00 24.30 L -10.00 24.44 L -11.00 24.59 L -12.00 24.75 L -13.00 24.93 L -14.00 25.11 L -15.00 25.31 L -16.00 25.52 L -17.00 25.74 L -18.00 25.97 L -19.00 26.20 L -20.00 26.45 L -21.00 26.70 L -22.00 26.96 L -23.00 27.23 L -24.00 27.50 L -25.00 27.78 L -26.00 28.06 L -27.00 28.34 L -28.00 28.63 L -29.00 28.91 L -30.00 29.20 L -31.00 29.49 L -32.00 29.77 L -33.00 30.06 L -34.00 30.34 L -35.00 30.62 L -36.00 30.90 L -37.00 31.17 L -38.00 31.44 L -39.00 31.70 L -40.00 31.95 L -41.00 32.20 L -42.00 32.43 L -43.00 32.66 L -44.00 32.88 L -45.00 33.09 L -46.00 33.29 L -47.00 33.47 L -48.00 33.65 L -49.00 33.81 L -50.00 33.96 L -51.00 34.10 L -52.00 34.22 L -53.00 34.33 L -54.00 34.43 L -55.00 34.51 L -56.00 34.58 L -57.00 34.63 L -58.00 34.67 L -59.00 34.69 L -60.00 34.70 Z" fill="#efeae5"/>
  <path d="M -59.50 -22.60 L -59.00 -22.61 L -58.00 -22.63 L -57.00 -22.67 L -56.00 -22.72 L -55.00 -22.79 L -54.00 -22.87 L -53.00 -22.97 L -52.00 -23.08 L -51.00 -23.20 L -50.00 -23.34 L -49.00 -23.49 L -48.00 -23.65 L -47.00 -23.83 L -46.00 -24.01 L -45.00 -24.21 L -44.00 -24.42 L -43.00 -24.64 L -42.00 -24.87 L -41.00 -25.10 L -40.00 -25.35 L -39.00 -25.60 L -38.00 -25.86 L -37.00 -26.13 L -36.00 -26.40 L -35.00 -26.68 L -34.00 -26.96 L -33.00 -27.24 L -32.00 -27.53 L -31.00 -27.81 L -30.00 -28.10 L -29.00 -28.39 L -28.00 -28.67 L -27.00 -28.96 L -26.00 -29.24 L -25.00 -29.52 L -24.00 -29.80 L -23.00 -30.07 L -22.00 -30.34 L -21.00 -30.60 L -20.00 -30.85 L -19.00 -31.10 L -18.00 -31.33 L -17.00 -31.56 L -16.00 -31.78 L -15.00 -31.99 L -14.00 -32.19 L -13.00 -32.37 L -12.00 -32.55 L -11.00 -32.71 L -10.00 -32.86 L -9.00 -33.00 L -8.00 -33.12 L -7.00 -33.23 L -6.00 -33.33 L -5.00 -33.41 L -4.00 -33.48 L -3.00 -33.53 L -2.00 -33.57 L -1.00 -33.59 L 0.00 -33.60 L 1.00 -33.59 L 2.00 -33.57 L 3.00 -33.53 L 4.00 -33.48 L 5.00 -33.41 L 6.00 -33.33 L 7.00 -33.23 L 8.00 -33.12 L 9.00 -33.00 L 10.00 -32.86 L 11.00 -32.71 L 12.00 -32.55 L 13.00 -32.37 L 14.00 -32.19 L 15.00 -31.99 L 16.00 -31.78 L 17.00 -31.56 L 18.00 -31.33 L 19.00 -31.10 L 20.00 -30.85 L 21.00 -30.60 L 22.00 -30.34 L 23.00 -30.07 L 24.00 -29.80 L 25.00 -29.52 L 26.00 -29.24 L 27.00 -28.96 L 28.00 -28.67 L 29.00 -28.39 L 30.00 -28.10 L 31.00 -27.81 L 32.00 -27.53 L 33.00 -27.24 L 34.00 -26.96 L 35.00 -26.68 L 36.00 -26.40 L 37.00 -26.13 L 38.00 -25.86 L 39.00 -25.60 L 40.00 -25.35 L 41.00 -25.10 L 42.00 -24.87 L 43.00 -24.64 L 44.00 -24.42 L 45.00 -24.21 L 46.00 -24.01 L 47.00 -23.83 L 48.00 -23.65 L 49.00 -23.49 L 50.00 -23.34 L 51.00 -23.20 L 52.00 -23.08 L 53.00 -22.97 L 54.00 -22.87 L 55.00 -22.79 L 56.00 -22.72 L 57.00 -22.67 L 58.00 -22.63 L 59.00 -22.61 L 59.50 -22.60 L 59.50 33.60 L 59.00 33.59 L 58.00 33.57 L 57.00 33.53 L 56.00 33.48 L 55.00 33.41 L 54.00 33.33 L 53.00 33.23 L 52.00 33.12 L 51.00 33.00 L 50.00 32.86 L 49.00 32.71 L 48.00 32.55 L 47.00 32.37 L 46.00 32.19 L 45.00 31.99 L 44.00 31.78 L 43.00 31.56 L 42.00 31.33 L 41.00 31.10 L 40.00 30.85 L 39.00 30.60 L 38.00 30.34 L 37.00 30.07 L 36.00 29.80 L 35.00 29.52 L 34.00 29.24 L 33.00 28.96 L 32.00 28.67 L 31.00 28.39 L 30.00 28.10 L 29.00 27.81 L 28.00 27.53 L 27.00 27.24 L 26.00 26.96 L 25.00 26.68 L 24.00 26.40 L 23.00 26.13 L 22.00 25.86 L 21.00 25.60 L 20.00 25.35 L 19.00 25.10 L 18.00 24.87 L 17.00 24.64 L 16.00 24.42 L 15.00 24.21 L 14.00 24.01 L 13.00 23.83 L 12.00 23.65 L 11.00 23.49 L 10.00 23.34 L 9.00 23.20 L 8.00 23.08 L 7.00 22.97 L 6.00 22.87 L 5.00 22.79 L 4.00 22.72 L 3.00 22.67 L 2.00 22.63 L 1.00 22.61 L 0.00 22.60 L -1.00 22.61 L -2.00 22.63 L -3.00 22.67 L -4.00 22.72 L -5.00 22.79 L -6.00 22.87 L -7.00 22.97 L -8.00 23.08 L -9.00 23.20 L -10.00 23.34 L -11.00 23.49 L -12.00 23.65 L -13.00 23.83 L -14.00 24.01 L -15.00 24.21 L -16.00 24.42 L -17.00 24.64 L -18.00 24.87 L -19.00 25.10 L -20.00 25.35 L -21.00 25.60 L -22.00 25.86 L -23.00 26.13 L -24.00 26.40 L -25.00 26.68 L -26.00 26.96 L -27.00 27.24 L -28.00 27.53 L -29.00 27.81 L -30.00 28.10 L -31.00 28.39 L -32.00 28.67 L -33.00 28.96 L -34.00 29.24 L -35.00 29.52 L -36.00 29.80 L -37.00 30.07 L -38.00 30.34 L -39.00 30.60 L -40.00 30.85 L -41.00 31.10 L -42.00 31.33 L -43.00 31.56 L -44.00 31.78 L -45.00 31.99 L -46.00 32.19 L -47.00 32.37 L -48.00 32.55 L -49.00 32.71 L -50.00 32.86 L -51.00 33.00 L -52.00 33.12 L -53.00 33.23 L -54.00 33.33 L -55.00 33.41 L -56.00 33.48 L -57.00 33.53 L -58.00 33.57 L -59.00 33.59 L -59.50 33.60 Z" fill="none" stroke="#c9d1dc" stroke-width="1.0" stroke-linejoin="round"/>
  <path d="M -60.00 -23.70 L -59.00 -23.71 L -58.00 -23.73 L -57.00 -23.77 L -56.00 -23.82 L -55.00 -23.89 L -54.00 -23.97 L -53.00 -24.07 L -52.00 -24.18 L -51.00 -24.30 L -50.00 -24.44 L -49.00 -24.59 L -48.00 -24.75 L -47.00 -24.93 L -46.00 -25.11 L -45.00 -25.31 L -44.00 -25.52 L -43.00 -25.74 L -42.00 -25.97 L -41.00 -26.20 L -40.00 -26.45 L -39.00 -26.70 L -38.00 -26.96 L -37.00 -27.23 L -36.00 -27.50 L -35.00 -27.78 L -34.00 -28.06 L -33.00 -28.34 L -32.00 -28.63 L -31.00 -28.91 L -30.00 -29.20 L -29.00 -29.49 L -28.00 -29.77 L -27.00 -30.06 L -26.00 -30.34 L -25.00 -30.62 L -24.00 -30.90 L -23.00 -31.17 L -22.00 -31.44 L -21.00 -31.70 L -20.00 -31.95 L -19.00 -32.20 L -18.00 -32.43 L -17.00 -32.66 L -16.00 -32.88 L -15.00 -33.09 L -14.00 -33.29 L -13.00 -33.47 L -12.00 -33.65 L -11.00 -33.81 L -10.00 -33.96 L -9.00 -34.10 L -8.00 -34.22 L -7.00 -34.33 L -6.00 -34.43 L -5.00 -34.51 L -4.00 -34.58 L -3.00 -34.63 L -2.00 -34.67 L -1.00 -34.69 L 0.00 -34.70 L 1.00 -34.69 L 2.00 -34.67 L 3.00 -34.63 L 4.00 -34.58 L 5.00 -34.51 L 6.00 -34.43 L 7.00 -34.33 L 8.00 -34.22 L 9.00 -34.10 L 10.00 -33.96 L 11.00 -33.81 L 12.00 -33.65 L 13.00 -33.47 L 14.00 -33.29 L 15.00 -33.09 L 16.00 -32.88 L 17.00 -32.66 L 18.00 -32.43 L 19.00 -32.20 L 20.00 -31.95 L 21.00 -31.70 L 22.00 -31.44 L 23.00 -31.17 L 24.00 -30.90 L 25.00 -30.62 L 26.00 -30.34 L 27.00 -30.06 L 28.00 -29.77 L 29.00 -29.49 L 30.00 -29.20 L 31.00 -28.91 L 32.00 -28.63 L 33.00 -28.34 L 34.00 -28.06 L 35.00 -27.78 L 36.00 -27.50 L 37.00 -27.23 L 38.00 -26.96 L 39.00 -26.70 L 40.00 -26.45 L 41.00 -26.20 L 42.00 -25.97 L 43.00 -25.74 L 44.00 -25.52 L 45.00 -25.31 L 46.00 -25.11 L 47.00 -24.93 L 48.00 -24.75 L 49.00 -24.59 L 50.00 -24.44 L 51.00 -24.30 L 52.00 -24.18 L 53.00 -24.07 L 54.00 -23.97 L 55.00 -23.89 L 56.00 -23.82 L 57.00 -23.77 L 58.00 -23.73 L 59.00 -23.71 L 60.00 -23.70" fill="none" stroke="#5d5a57" stroke-width="1.6"/>
  <path d="M -60.00 34.70 L -59.00 34.69 L -58.00 34.67 L -57.00 34.63 L -56.00 34.58 L -55.00 34.51 L -54.00 34.43 L -53.00 34.33 L -52.00 34.22 L -51.00 34.10 L -50.00 33.96 L -49.00 33.81 L -48.00 33.65 L -47.00 33.47 L -46.00 33.29 L -45.00 33.09 L -44.00 32.88 L -43.00 32.66 L -42.00 32.43 L -41.00 32.20 L -40.00 31.95 L -39.00 31.70 L -38.00 31.44 L -37.00 31.17 L -36.00 30.90 L -35.00 30.62 L -34.00 30.34 L -33.00 30.06 L -32.00 29.77 L -31.00 29.49 L -30.00 29.20 L -29.00 28.91 L -28.00 28.63 L -27.00 28.34 L -26.00 28.06 L -25.00 27.78 L -24.00 27.50 L -23.00 27.23 L -22.00 26.96 L -21.00 26.70 L -20.00 26.45 L -19.00 26.20 L -18.00 25.97 L -17.00 25.74 L -16.00 25.52 L -15.00 25.31 L -14.00 25.11 L -13.00 24.93 L -12.00 24.75 L -11.00 24.59 L -10.00 24.44 L -9.00 24.30 L -8.00 24.18 L -7.00 24.07 L -6.00 23.97 L -5.00 23.89 L -4.00 23.82 L -3.00 23.77 L -2.00 23.73 L -1.00 23.71 L 0.00 23.70 L 1.00 23.71 L 2.00 23.73 L 3.00 23.77 L 4.00 23.82 L 5.00 23.89 L 6.00 23.97 L 7.00 24.07 L 8.00 24.18 L 9.00 24.30 L 10.00 24.44 L 11.00 24.59 L 12.00 24.75 L 13.00 24.93 L 14.00 25.11 L 15.00 25.31 L 16.00 25.52 L 17.00 25.74 L 18.00 25.97 L 19.00 26.20 L 20.00 26.45 L 21.00 26.70 L 22.00 26.96 L 23.00 27.23 L 24.00 27.50 L 25.00 27.78 L 26.00 28.06 L 27.00 28.34 L 28.00 28.63 L 29.00 28.91 L 30.00 29.20 L 31.00 29.49 L 32.00 29.77 L 33.00 30.06 L 34.00 30.34 L 35.00 30.62 L 36.00 30.90 L 37.00 31.17 L 38.00 31.44 L 39.00 31.70 L 40.00 31.95 L 41.00 32.20 L 42.00 32.43 L 43.00 32.66 L 44.00 32.88 L 45.00 33.09 L 46.00 33.29 L 47.00 33.47 L 48.00 33.65 L 49.00 33.81 L 50.00 33.96 L 51.00 34.10 L 52.00 34.22 L 53.00 34.33 L 54.00 34.43 L 55.00 34.51 L 56.00 34.58 L 57.00 34.63 L 58.00 34.67 L 59.00 34.69 L 60.00 34.70" fill="none" stroke="#5d5a57" stroke-width="1.6"/>
  <path d="M -60.00 -12.20 L -59.00 -12.21 L -58.00 -12.23 L -57.00 -12.27 L -56.00 -12.32 L -55.00 -12.39 L -54.00 -12.47 L -53.00 -12.57 L -52.00 -12.68 L -51.00 -12.80 L -50.00 -12.94 L -49.00 -13.09 L -48.00 -13.25 L -47.00 -13.43 L -46.00 -13.61 L -45.00 -13.81 L -44.00 -14.02 L -43.00 -14.24 L -42.00 -14.47 L -41.00 -14.70 L -40.00 -14.95 L -39.00 -15.20 L -38.00 -15.46 L -37.00 -15.73 L -36.00 -16.00 L -35.00 -16.28 L -34.00 -16.56 L -33.00 -16.84 L -32.00 -17.13 L -31.00 -17.41 L -30.00 -17.70 L -29.00 -17.99 L -28.00 -18.27 L -27.00 -18.56 L -26.00 -18.84 L -25.00 -19.12 L -24.00 -19.40 L -23.00 -19.67 L -22.00 -19.94 L -21.00 -20.20 L -20.00 -20.45 L -19.00 -20.70 L -18.00 -20.93 L -17.00 -21.16 L -16.00 -21.38 L -15.00 -21.59 L -14.00 -21.79 L -13.00 -21.97 L -12.00 -22.15 L -11.00 -22.31 L -10.00 -22.46 L -9.00 -22.60 L -8.00 -22.72 L -7.00 -22.83 L -6.00 -22.93 L -5.00 -23.01 L -4.00 -23.08 L -3.00 -23.13 L -2.00 -23.17 L -1.00 -23.19 L 0.00 -23.20 L 1.00 -23.19 L 2.00 -23.17 L 3.00 -23.13 L 4.00 -23.08 L 5.00 -23.01 L 6.00 -22.93 L 7.00 -22.83 L 8.00 -22.72 L 9.00 -22.60 L 10.00 -22.46 L 11.00 -22.31 L 12.00 -22.15 L 13.00 -21.97 L 14.00 -21.79 L 15.00 -21.59 L 16.00 -21.38 L 17.00 -21.16 L 18.00 -20.93 L 19.00 -20.70 L 20.00 -20.45 L 21.00 -20.20 L 22.00 -19.94 L 23.00 -19.67 L 24.00 -19.40 L 25.00 -19.12 L 26.00 -18.84 L 27.00 -18.56 L 28.00 -18.27 L 29.00 -17.99 L 30.00 -17.70 L 31.00 -17.41 L 32.00 -17.13 L 33.00 -16.84 L 34.00 -16.56 L 35.00 -16.28 L 36.00 -16.00 L 37.00 -15.73 L 38.00 -15.46 L 39.00 -15.20 L 40.00 -14.95 L 41.00 -14.70 L 42.00 -14.47 L 43.00 -14.24 L 44.00 -14.02 L 45.00 -13.81 L 46.00 -13.61 L 47.00 -13.43 L 48.00 -13.25 L 49.00 -13.09 L 50.00 -12.94 L 51.00 -12.80 L 52.00 -12.68 L 53.00 -12.57 L 54.00 -12.47 L 55.00 -12.39 L 56.00 -12.32 L 57.00 -12.27 L 58.00 -12.23 L 59.00 -12.21 L 60.00 -12.20" fill="none" stroke="#8a8683" stroke-width="1.6"/>
  <path d="M -60.00 -0.70 L -59.00 -0.71 L -58.00 -0.73 L -57.00 -0.77 L -56.00 -0.82 L -55.00 -0.89 L -54.00 -0.97 L -53.00 -1.07 L -52.00 -1.18 L -51.00 -1.30 L -50.00 -1.44 L -49.00 -1.59 L -48.00 -1.75 L -47.00 -1.93 L -46.00 -2.11 L -45.00 -2.31 L -44.00 -2.52 L -43.00 -2.74 L -42.00 -2.97 L -41.00 -3.20 L -40.00 -3.45 L -39.00 -3.70 L -38.00 -3.96 L -37.00 -4.23 L -36.00 -4.50 L -35.00 -4.78 L -34.00 -5.06 L -33.00 -5.34 L -32.00 -5.63 L -31.00 -5.91 L -30.00 -6.20 L -29.00 -6.49 L -28.00 -6.77 L -27.00 -7.06 L -26.00 -7.34 L -25.00 -7.62 L -24.00 -7.90 L -23.00 -8.17 L -22.00 -8.44 L -21.00 -8.70 L -20.00 -8.95 L -19.00 -9.20 L -18.00 -9.43 L -17.00 -9.66 L -16.00 -9.88 L -15.00 -10.09 L -14.00 -10.29 L -13.00 -10.47 L -12.00 -10.65 L -11.00 -10.81 L -10.00 -10.96 L -9.00 -11.10 L -8.00 -11.22 L -7.00 -11.33 L -6.00 -11.43 L -5.00 -11.51 L -4.00 -11.58 L -3.00 -11.63 L -2.00 -11.67 L -1.00 -11.69 L 0.00 -11.70 L 1.00 -11.69 L 2.00 -11.67 L 3.00 -11.63 L 4.00 -11.58 L 5.00 -11.51 L 6.00 -11.43 L 7.00 -11.33 L 8.00 -11.22 L 9.00 -11.10 L 10.00 -10.96 L 11.00 -10.81 L 12.00 -10.65 L 13.00 -10.47 L 14.00 -10.29 L 15.00 -10.09 L 16.00 -9.88 L 17.00 -9.66 L 18.00 -9.43 L 19.00 -9.20 L 20.00 -8.95 L 21.00 -8.70 L 22.00 -8.44 L 23.00 -8.17 L 24.00 -7.90 L 25.00 -7.62 L 26.00 -7.34 L 27.00 -7.06 L 28.00 -6.77 L 29.00 -6.49 L 30.00 -6.20 L 31.00 -5.91 L 32.00 -5.63 L 33.00 -5.34 L 34.00 -5.06 L 35.00 -4.78 L 36.00 -4.50 L 37.00 -4.23 L 38.00 -3.96 L 39.00 -3.70 L 40.00 -3.45 L 41.00 -3.20 L 42.00 -2.97 L 43.00 -2.74 L 44.00 -2.52 L 45.00 -2.31 L 46.00 -2.11 L 47.00 -1.93 L 48.00 -1.75 L 49.00 -1.59 L 50.00 -1.44 L 51.00 -1.30 L 52.00 -1.18 L 53.00 -1.07 L 54.00 -0.97 L 55.00 -0.89 L 56.00 -0.82 L 57.00 -0.77 L 58.00 -0.73 L 59.00 -0.71 L 60.00 -0.70" fill="none" stroke="#8a8683" stroke-width="1.6"/>
  <path d="M -60.00 10.80 L -59.00 10.79 L -58.00 10.77 L -57.00 10.73 L -56.00 10.68 L -55.00 10.61 L -54.00 10.53 L -53.00 10.43 L -52.00 10.32 L -51.00 10.20 L -50.00 10.06 L -49.00 9.91 L -48.00 9.75 L -47.00 9.57 L -46.00 9.39 L -45.00 9.19 L -44.00 8.98 L -43.00 8.76 L -42.00 8.53 L -41.00 8.30 L -40.00 8.05 L -39.00 7.80 L -38.00 7.54 L -37.00 7.27 L -36.00 7.00 L -35.00 6.72 L -34.00 6.44 L -33.00 6.16 L -32.00 5.87 L -31.00 5.59 L -30.00 5.30 L -29.00 5.01 L -28.00 4.73 L -27.00 4.44 L -26.00 4.16 L -25.00 3.88 L -24.00 3.60 L -23.00 3.33 L -22.00 3.06 L -21.00 2.80 L -20.00 2.55 L -19.00 2.30 L -18.00 2.07 L -17.00 1.84 L -16.00 1.62 L -15.00 1.41 L -14.00 1.21 L -13.00 1.03 L -12.00 0.85 L -11.00 0.69 L -10.00 0.54 L -9.00 0.40 L -8.00 0.28 L -7.00 0.17 L -6.00 0.07 L -5.00 -0.01 L -4.00 -0.08 L -3.00 -0.13 L -2.00 -0.17 L -1.00 -0.19 L 0.00 -0.20 L 1.00 -0.19 L 2.00 -0.17 L 3.00 -0.13 L 4.00 -0.08 L 5.00 -0.01 L 6.00 0.07 L 7.00 0.17 L 8.00 0.28 L 9.00 0.40 L 10.00 0.54 L 11.00 0.69 L 12.00 0.85 L 13.00 1.03 L 14.00 1.21 L 15.00 1.41 L 16.00 1.62 L 17.00 1.84 L 18.00 2.07 L 19.00 2.30 L 20.00 2.55 L 21.00 2.80 L 22.00 3.06 L 23.00 3.33 L 24.00 3.60 L 25.00 3.88 L 26.00 4.16 L 27.00 4.44 L 28.00 4.73 L 29.00 5.01 L 30.00 5.30 L 31.00 5.59 L 32.00 5.87 L 33.00 6.16 L 34.00 6.44 L 35.00 6.72 L 36.00 7.00 L 37.00 7.27 L 38.00 7.54 L 39.00 7.80 L 40.00 8.05 L 41.00 8.30 L 42.00 8.53 L 43.00 8.76 L 44.00 8.98 L 45.00 9.19 L 46.00 9.39 L 47.00 9.57 L 48.00 9.75 L 49.00 9.91 L 50.00 10.06 L 51.00 10.20 L 52.00 10.32 L 53.00 10.43 L 54.00 10.53 L 55.00 10.61 L 56.00 10.68 L 57.00 10.73 L 58.00 10.77 L 59.00 10.79 L 60.00 10.80" fill="none" stroke="#8a8683" stroke-width="1.6"/>
  <path d="M -60.00 22.30 L -59.00 22.29 L -58.00 22.27 L -57.00 22.23 L -56.00 22.18 L -55.00 22.11 L -54.00 22.03 L -53.00 21.93 L -52.00 21.82 L -51.00 21.70 L -50.00 21.56 L -49.00 21.41 L -48.00 21.25 L -47.00 21.07 L -46.00 20.89 L -45.00 20.69 L -44.00 20.48 L -43.00 20.26 L -42.00 20.03 L -41.00 19.80 L -40.00 19.55 L -39.00 19.30 L -38.00 19.04 L -37.00 18.77 L -36.00 18.50 L -35.00 18.22 L -34.00 17.94 L -33.00 17.66 L -32.00 17.37 L -31.00 17.09 L -30.00 16.80 L -29.00 16.51 L -28.00 16.23 L -27.00 15.94 L -26.00 15.66 L -25.00 15.38 L -24.00 15.10 L -23.00 14.83 L -22.00 14.56 L -21.00 14.30 L -20.00 14.05 L -19.00 13.80 L -18.00 13.57 L -17.00 13.34 L -16.00 13.12 L -15.00 12.91 L -14.00 12.71 L -13.00 12.53 L -12.00 12.35 L -11.00 12.19 L -10.00 12.04 L -9.00 11.90 L -8.00 11.78 L -7.00 11.67 L -6.00 11.57 L -5.00 11.49 L -4.00 11.42 L -3.00 11.37 L -2.00 11.33 L -1.00 11.31 L 0.00 11.30 L 1.00 11.31 L 2.00 11.33 L 3.00 11.37 L 4.00 11.42 L 5.00 11.49 L 6.00 11.57 L 7.00 11.67 L 8.00 11.78 L 9.00 11.90 L 10.00 12.04 L 11.00 12.19 L 12.00 12.35 L 13.00 12.53 L 14.00 12.71 L 15.00 12.91 L 16.00 13.12 L 17.00 13.34 L 18.00 13.57 L 19.00 13.80 L 20.00 14.05 L 21.00 14.30 L 22.00 14.56 L 23.00 14.83 L 24.00 15.10 L 25.00 15.38 L 26.00 15.66 L 27.00 15.94 L 28.00 16.23 L 29.00 16.51 L 30.00 16.80 L 31.00 17.09 L 32.00 17.37 L 33.00 17.66 L 34.00 17.94 L 35.00 18.22 L 36.00 18.50 L 37.00 18.77 L 38.00 19.04 L 39.00 19.30 L 40.00 19.55 L 41.00 19.80 L 42.00 20.03 L 43.00 20.26 L 44.00 20.48 L 45.00 20.69 L 46.00 20.89 L 47.00 21.07 L 48.00 21.25 L 49.00 21.41 L 50.00 21.56 L 51.00 21.70 L 52.00 21.82 L 53.00 21.93 L 54.00 22.03 L 55.00 22.11 L 56.00 22.18 L 57.00 22.23 L 58.00 22.27 L 59.00 22.29 L 60.00 22.30" fill="none" stroke="#8a8683" stroke-width="1.6"/>
</svg>
