<svg xmlns="http://www.w3.org/2000/svg" width="162" height="36" viewBox="-81.0 -18.0 162 36">
  <path d="M -80.0 -17.0 L -81.0 -17.0 L -81.0 -16.0 L -80.0 -16.0 L -80.0 -7.0 L -21.0 -7.0 L -21.0 -6.0 L -14.0 -6.0 L -14.0 -5.0 L -11.0 -5.0 L -11.0 -4.0 L -8.0 -4.0 L -8.0 -3.0 L -7.0 -3.0 L -7.0 -4.0 L -5.0 -4.0 L -5.0 -5.0 L -3.0 -6.0 L -3.0 -9.0 L -2.0 -9.0 L -3.0 -11.0 L -2.0 -11.0 L -2.0 -12.0 L -4.0 -12.0 L -5.0 -14.0 L -8.0 -14.0 L -8.0 -15.0 L -13.0 -15.0 L -13.0 -16.0 L -17.0 -16.0 L -17.0 -17.0 L -18.0 -17.0 L -18.0 -16.0 L -21.0 -16.0 L -21.0 -17.0 L -26.0 -17.0 L -26.0 -16.0 L -27.0 -16.0 L -27.0 -17.0 L -79.0 -17.0 Z M 34.0 -17.0 L 33.0 -17.0 L 33.0 -16.0 L 35.0 -16.0 L 35.0 -17.0 Z M 45.0 -17.0 L 44.0 -17.0 L 44.0 -7.0 L 51.0 -7.0 L 51.0 -6.0 L 40.0 -6.0 L 40.0 -5.0 L 31.0 -5.0 L 31.0 -4.0 L 27.0 -4.0 L 27.0 -3.0 L 25.0 -4.0 L 25.0 -3.0 L 17.0 -2.0 L 16.0 0.0 L 10.0 1.0 L 10.0 2.0 L 9.0 2.0 L 9.0 3.0 L 10.0 3.0 L 10.0 5.0 L 9.0 5.0 L 9.0 4.0 L 6.0 4.0 L 6.0 5.0 L 4.0 5.0 L 4.0 6.0 L 3.0 6.0 L 3.0 12.0 L 4.0 12.0 L 5.0 14.0 L 9.0 14.0 L 9.0 15.0 L 13.0 15.0 L 13.0 16.0 L 17.0 16.0 L 17.0 17.0 L 18.0 17.0 L 18.0 16.0 L 20.0 16.0 L 20.0 17.0 L 81.0 17.0 L 81.0 16.0 L 80.0 16.0 L 80.0 -6.0 L 71.0 -6.0 L 71.0 -7.0 L 80.0 -7.0 L 80.0 -16.0 L 81.0 -16.0 L 81.0 -17.0 L 47.0 -17.0 L 47.0 -16.0 L 45.0 -16.0 Z M 26.0 -16.0 L 25.0 -16.0 L 25.0 -15.0 L 26.0 -15.0 Z M 37.0 -16.0 L 36.0 -16.0 L 36.0 -15.0 L 40.0 -15.0 L 40.0 -10.0 L 39.0 -10.0 L 40.0 -8.0 L 36.0 -8.0 L 36.0 -6.0 L 38.0 -6.0 L 38.0 -7.0 L 42.0 -7.0 L 42.0 -16.0 L 38.0 -16.0 Z M 0.0 -15.0 L -1.0 -15.0 L -1.0 -14.0 L 0.0 -14.0 Z M 5.0 -15.0 L 4.0 -15.0 L 4.0 -14.0 L 5.0 -14.0 Z M 21.0 -15.0 L 20.0 -15.0 L 20.0 -14.0 L 21.0 -14.0 Z M 8.0 -12.0 L 7.0 -12.0 L 7.0 -11.0 L 8.0 -11.0 Z M 4.0 -10.0 L 3.0 -10.0 L 3.0 -9.0 L 4.0 -9.0 Z M 2.0 -9.0 L 1.0 -9.0 L 1.0 -8.0 L 2.0 -8.0 Z M -1.0 -8.0 L -2.0 -8.0 L -2.0 -7.0 L -1.0 -7.0 Z M -79.0 -6.0 L -80.0 -6.0 L -80.0 16.0 L -81.0 16.0 L -81.0 17.0 L -47.0 17.0 L -47.0 16.0 L -45.0 16.0 L -45.0 17.0 L -44.0 17.0 L -44.0 7.0 L -67.0 7.0 L -67.0 6.0 L -39.0 6.0 L -39.0 5.0 L -30.0 5.0 L -30.0 4.0 L -29.0 4.0 L -29.0 5.0 L -27.0 6.0 L -27.0 5.0 L -28.0 5.0 L -27.0 3.0 L -25.0 4.0 L -25.0 3.0 L -21.0 3.0 L -21.0 2.0 L -18.0 2.0 L -18.0 1.0 L -14.0 1.0 L -14.0 0.0 L -12.0 0.0 L -12.0 1.0 L -11.0 1.0 L -12.0 -1.0 L -11.0 -1.0 L -11.0 -2.0 L -9.0 -2.0 L -9.0 -3.0 L -12.0 -3.0 L -12.0 -4.0 L -17.0 -4.0 L -17.0 -5.0 L -25.0 -5.0 L -25.0 -6.0 L -26.0 -6.0 L -26.0 -5.0 L -28.0 -5.0 L -28.0 -6.0 L -78.0 -6.0 Z M 28.0 -6.0 L 27.0 -6.0 L 27.0 -5.0 L 28.0 -5.0 Z M 23.0 -5.0 L 22.0 -5.0 L 22.0 -4.0 L 23.0 -4.0 Z M 0.0 -3.0 L -1.0 -3.0 L -1.0 -2.0 L 0.0 -2.0 Z M 17.0 -3.0 L 16.0 -3.0 L 16.0 -2.0 L 17.0 -2.0 Z M -9.0 -1.0 L -10.0 -1.0 L -10.0 0.0 L -9.0 0.0 Z M 0.0 0.0 L -1.0 0.0 L -1.0 1.0 L 0.0 1.0 Z M 11.0 3.0 L 12.0 3.0 L 12.0 4.0 L 16.0 4.0 L 16.0 5.0 L 24.0 5.0 L 24.0 7.0 L 20.0 7.0 L 20.0 6.0 L 13.0 6.0 L 13.0 5.0 L 11.0 5.0 L 11.0 4.0 Z M -22.0 4.0 L -23.0 4.0 L -23.0 5.0 L -22.0 5.0 Z M 26.0 5.0 L 28.0 5.0 L 28.0 7.0 L 26.0 7.0 L 26.0 6.0 Z M -35.0 6.0 L -36.0 6.0 L -36.0 7.0 L -42.0 7.0 L -42.0 16.0 L -36.0 16.0 L -36.0 15.0 L -39.0 15.0 L -39.0 8.0 L -35.0 8.0 L -34.0 6.0 Z M 2.0 7.0 L 1.0 7.0 L 1.0 8.0 L 2.0 8.0 Z M -4.0 8.0 L -5.0 8.0 L -5.0 9.0 L -4.0 9.0 Z M -1.0 8.0 L -2.0 8.0 L -2.0 9.0 L -1.0 9.0 Z M -6.0 9.0 L -7.0 9.0 L -7.0 10.0 L -6.0 10.0 Z M -13.0 12.0 L -14.0 12.0 L -14.0 13.0 L -13.0 13.0 Z M -16.0 13.0 L -17.0 13.0 L -17.0 14.0 L -16.0 14.0 Z M -20.0 14.0 L -21.0 14.0 L -21.0 15.0 L -20.0 15.0 Z M -4.0 14.0 L -5.0 14.0 L -5.0 15.0 L -4.0 15.0 Z M -25.0 15.0 L -26.0 15.0 L -26.0 16.0 L -25.0 16.0 Z M -1.0 15.0 L -2.0 15.0 L -2.0 16.0 L -1.0 16.0 Z M -33.0 16.0 L -34.0 16.0 L -34.0 17.0 L -33.0 17.0 Z" fill="#efeae5" fill-rule="evenodd"/>
  <path d="M -20.0 -17.0 L -21.0 -17.0 L -21.0 -16.0 L -18.0 -16.0 L -18.0 -17.0 L -19.0 -17.0 Z M 36.0 -17.0 L 35.0 -17.0 L 35.0 -16.0 L 26.0 -16.0 L 26.0 -15.0 L 21.0 -15.0 L 21.0 -14.0 L 17.0 -14.0 L 17.0 -13.0 L 11.0 -12.0 L 11.0 -11.0 L 9.0 -11.0 L 9.0 -10.0 L 7.0 -10.0 L 7.0 -9.0 L 5.0 -9.0 L 5.0 -8.0 L 3.0 -8.0 L 3.0 -7.0 L -1.0 -6.0 L -2.0 -4.0 L 0.0 -3.0 L 0.0 -1.0 L 1.0 -1.0 L 1.0 1.0 L 2.0 1.0 L 2.0 3.0 L 3.0 3.0 L 3.0 4.0 L 4.0 4.0 L 4.0 3.0 L 6.0 3.0 L 6.0 2.0 L 8.0 2.0 L 8.0 1.0 L 10.0 1.0 L 10.0 0.0 L 12.0 0.0 L 12.0 -1.0 L 14.0 -1.0 L 14.0 -2.0 L 16.0 -2.0 L 16.0 -3.0 L 22.0 -4.0 L 22.0 -5.0 L 27.0 -5.0 L 27.0 -6.0 L 36.0 -6.0 L 36.0 -8.0 L 40.0 -8.0 L 40.0 -9.0 L 39.0 -9.0 L 39.0 -10.0 L 40.0 -10.0 L 40.0 -15.0 L 36.0 -15.0 L 36.0 -16.0 L 42.0 -16.0 L 42.0 -17.0 L 37.0 -17.0 Z M 46.0 -17.0 L 45.0 -17.0 L 45.0 -16.0 L 47.0 -16.0 L 47.0 -17.0 Z M -80.0 -16.0 L -81.0 -16.0 L -81.0 -7.0 L -80.0 -7.0 L -80.0 -6.0 L -28.0 -6.0 L -28.0 -7.0 L -80.0 -7.0 L -80.0 -15.0 Z M -12.0 -16.0 L -13.0 -16.0 L -13.0 -15.0 L -12.0 -15.0 Z M 1.0 -16.0 L 0.0 -16.0 L 0.0 -14.0 L -1.0 -14.0 L -1.0 -7.0 L 0.0 -7.0 L 1.0 -9.0 L 3.0 -9.0 L 3.0 -10.0 L 5.0 -10.0 L 5.0 -11.0 L 9.0 -12.0 L 8.0 -14.0 L 4.0 -14.0 L 4.0 -15.0 L 1.0 -15.0 Z M 81.0 -16.0 L 80.0 -16.0 L 80.0 -7.0 L 71.0 -7.0 L 71.0 -6.0 L 80.0 -6.0 L 80.0 -7.0 L 81.0 -7.0 L 81.0 -15.0 Z M -3.0 -13.0 L -4.0 -13.0 L -4.0 -12.0 L -3.0 -12.0 Z M -2.0 -11.0 L -3.0 -11.0 L -3.0 -10.0 L -2.0 -10.0 Z M -25.0 -7.0 L -26.0 -7.0 L -26.0 -6.0 L -21.0 -6.0 L -21.0 -7.0 L -24.0 -7.0 Z M -14.0 -6.0 L -15.0 -6.0 L -15.0 -5.0 L -17.0 -5.0 L -17.0 -4.0 L -15.0 -4.0 L -15.0 -5.0 L -14.0 -5.0 Z M -3.0 -6.0 L -4.0 -6.0 L -4.0 -5.0 L -3.0 -5.0 Z M -80.0 -5.0 L -81.0 -5.0 L -81.0 5.0 L -80.0 5.0 L -80.0 -4.0 Z M 30.0 -5.0 L 29.0 -5.0 L 29.0 -4.0 L 31.0 -4.0 L 31.0 -5.0 Z M 81.0 -5.0 L 80.0 -5.0 L 80.0 5.0 L 81.0 5.0 L 81.0 -4.0 Z M -11.0 -4.0 L -12.0 -4.0 L -12.0 -3.0 L -11.0 -3.0 Z M -3.0 -4.0 L -4.0 -4.0 L -4.0 -3.0 L -6.0 -3.0 L -6.0 -2.0 L -8.0 -2.0 L -8.0 -1.0 L -9.0 -1.0 L -9.0 0.0 L -11.0 0.0 L -11.0 1.0 L -14.0 1.0 L -14.0 2.0 L -16.0 2.0 L -16.0 3.0 L -19.0 3.0 L -19.0 4.0 L -22.0 4.0 L -22.0 5.0 L -27.0 5.0 L -27.0 6.0 L -34.0 6.0 L -35.0 8.0 L -39.0 8.0 L -39.0 15.0 L -36.0 15.0 L -36.0 16.0 L -42.0 16.0 L -42.0 17.0 L -26.0 16.0 L -26.0 15.0 L -21.0 15.0 L -21.0 14.0 L -17.0 14.0 L -17.0 13.0 L -11.0 12.0 L -11.0 11.0 L -9.0 11.0 L -9.0 10.0 L -7.0 10.0 L -7.0 9.0 L -5.0 9.0 L -5.0 8.0 L -3.0 8.0 L -3.0 7.0 L -1.0 7.0 L -1.0 6.0 L 1.0 6.0 L 1.0 5.0 L 2.0 5.0 L 2.0 4.0 L 1.0 4.0 L 1.0 2.0 L -1.0 1.0 L -2.0 -3.0 L -3.0 -3.0 Z M 25.0 -4.0 L 24.0 -4.0 L 24.0 -3.0 L 25.0 -3.0 Z M 21.0 -3.0 L 20.0 -3.0 L 20.0 -2.0 L 21.0 -2.0 Z M -10.0 -2.0 L -11.0 -2.0 L -11.0 -1.0 L -10.0 -1.0 Z M 16.0 -1.0 L 15.0 -1.0 L 15.0 0.0 L 16.0 0.0 Z M -17.0 1.0 L -18.0 1.0 L -18.0 2.0 L -17.0 2.0 Z M -20.0 2.0 L -21.0 2.0 L -21.0 3.0 L -20.0 3.0 Z M -24.0 3.0 L -25.0 3.0 L -25.0 4.0 L -24.0 4.0 Z M 12.0 3.0 L 11.0 3.0 L 11.0 4.0 L 12.0 4.0 Z M -29.0 4.0 L -30.0 4.0 L -30.0 5.0 L -29.0 5.0 Z M 6.0 4.0 L 5.0 4.0 L 5.0 5.0 L 6.0 5.0 Z M 10.0 4.0 L 9.0 4.0 L 9.0 5.0 L 10.0 5.0 Z M 16.0 4.0 L 15.0 4.0 L 15.0 5.0 L 13.0 5.0 L 13.0 6.0 L 15.0 6.0 L 15.0 5.0 L 16.0 5.0 Z M 4.0 5.0 L 3.0 5.0 L 3.0 6.0 L 4.0 6.0 Z M 21.0 6.0 L 20.0 6.0 L 20.0 7.0 L 24.0 7.0 L 24.0 6.0 L 22.0 6.0 Z M -80.0 7.0 L -81.0 7.0 L -81.0 16.0 L -80.0 16.0 L -80.0 8.0 Z M 1.0 7.0 L 0.0 7.0 L -1.0 9.0 L -3.0 9.0 L -3.0 10.0 L -5.0 10.0 L -5.0 11.0 L -9.0 12.0 L -8.0 14.0 L -4.0 14.0 L -4.0 15.0 L -1.0 15.0 L -1.0 16.0 L 0.0 16.0 L 0.0 15.0 L 1.0 15.0 L 1.0 8.0 Z M 81.0 7.0 L 80.0 7.0 L 80.0 16.0 L 81.0 16.0 L 81.0 8.0 Z M 3.0 10.0 L 2.0 10.0 L 2.0 12.0 L 4.0 13.0 L 3.0 11.0 Z M 9.0 14.0 L 8.0 14.0 L 8.0 15.0 L 9.0 15.0 Z M 13.0 15.0 L 12.0 15.0 L 12.0 16.0 L 13.0 16.0 Z M -46.0 16.0 L -47.0 16.0 L -47.0 17.0 L -45.0 17.0 L -45.0 16.0 Z M 19.0 16.0 L 18.0 16.0 L 18.0 17.0 L 20.0 17.0 L 20.0 16.0 Z" fill="#c0bcb8" fill-rule="evenodd"/>
  <path d="M -79.0 -18.0 L -80.0 -18.0 L -80.0 -17.0 L -28.0 -17.0 L -28.0 -18.0 L -78.0 -18.0 Z M -25.0 -18.0 L -27.0 -17.0 L -27.0 -16.0 L -25.0 -17.0 Z M 45.0 -18.0 L 44.0 -18.0 L 44.0 -17.0 L 42.0 -17.0 L 42.0 -7.0 L 38.0 -7.0 L 38.0 -6.0 L 28.0 -6.0 L 28.0 -5.0 L 26.0 -4.0 L 26.0 -3.0 L 27.0 -3.0 L 27.0 -4.0 L 29.0 -4.0 L 29.0 -5.0 L 51.0 -6.0 L 51.0 -7.0 L 44.0 -7.0 L 44.0 -17.0 L 45.0 -17.0 Z M 49.0 -18.0 L 48.0 -18.0 L 48.0 -17.0 L 80.0 -17.0 L 80.0 -18.0 L 50.0 -18.0 Z M -16.0 -17.0 L -17.0 -17.0 L -17.0 -16.0 L -15.0 -16.0 L -15.0 -17.0 Z M 29.0 -17.0 L 28.0 -17.0 L 28.0 -16.0 L 33.0 -16.0 L 33.0 -17.0 L 30.0 -17.0 Z M -11.0 -16.0 L -12.0 -16.0 L -12.0 -15.0 L -10.0 -15.0 L -10.0 -16.0 Z M 0.0 -16.0 L -1.0 -16.0 L -1.0 -15.0 L 0.0 -15.0 Z M 2.0 -16.0 L 1.0 -16.0 L 1.0 -15.0 L 4.0 -15.0 L 4.0 -16.0 L 3.0 -16.0 Z M 23.0 -16.0 L 22.0 -16.0 L 22.0 -15.0 L 25.0 -15.0 L 25.0 -16.0 L 24.0 -16.0 Z M -7.0 -15.0 L -8.0 -15.0 L -8.0 -14.0 L -7.0 -14.0 Z M 6.0 -15.0 L 5.0 -15.0 L 5.0 -14.0 L 7.0 -14.0 L 7.0 -15.0 Z M 19.0 -15.0 L 18.0 -15.0 L 18.0 -14.0 L 20.0 -14.0 L 20.0 -15.0 Z M -4.0 -14.0 L -5.0 -14.0 L -5.0 -13.0 L -4.0 -13.0 Z M 9.0 -14.0 L 8.0 -14.0 L 8.0 -13.0 L 9.0 -13.0 L 8.0 -11.0 L 5.0 -11.0 L 4.0 -9.0 L 2.0 -9.0 L 2.0 -7.0 L 3.0 -7.0 L 3.0 -8.0 L 5.0 -8.0 L 5.0 -9.0 L 7.0 -9.0 L 7.0 -10.0 L 11.0 -11.0 L 11.0 -12.0 L 9.0 -13.0 Z M 16.0 -14.0 L 15.0 -14.0 L 15.0 -13.0 L 17.0 -13.0 L 17.0 -14.0 Z M -2.0 -13.0 L -3.0 -13.0 L -3.0 -12.0 L -2.0 -12.0 L -2.0 -9.0 L -3.0 -9.0 L -3.0 -6.0 L -2.0 -6.0 L -2.0 -5.0 L -1.0 -5.0 L -1.0 -6.0 L 1.0 -6.0 L 1.0 -8.0 L 0.0 -8.0 L 0.0 -7.0 L -2.0 -7.0 L -2.0 -8.0 L -1.0 -8.0 L -1.0 -13.0 Z M 13.0 -13.0 L 12.0 -13.0 L 12.0 -12.0 L 14.0 -12.0 L 14.0 -13.0 Z M -80.0 -7.0 L -81.0 -7.0 L -81.0 -5.0 L -80.0 -5.0 L -80.0 -6.0 Z M -27.0 -7.0 L -28.0 -7.0 L -28.0 -5.0 L -26.0 -5.0 L -26.0 -7.0 Z M 81.0 -7.0 L 80.0 -7.0 L 80.0 -5.0 L 81.0 -5.0 L 81.0 -6.0 Z M -24.0 -6.0 L -25.0 -6.0 L -25.0 -5.0 L -15.0 -5.0 L -15.0 -4.0 L -11.0 -4.0 L -11.0 -3.0 L -9.0 -3.0 L -9.0 -2.0 L -10.0 -2.0 L -10.0 -1.0 L -12.0 -1.0 L -12.0 0.0 L -14.0 0.0 L -14.0 1.0 L -17.0 1.0 L -17.0 2.0 L -20.0 2.0 L -20.0 3.0 L -24.0 3.0 L -24.0 4.0 L -26.0 4.0 L -26.0 5.0 L -23.0 5.0 L -23.0 4.0 L -19.0 4.0 L -19.0 3.0 L -16.0 3.0 L -16.0 2.0 L -14.0 2.0 L -14.0 1.0 L -12.0 1.0 L -12.0 0.0 L -8.0 -1.0 L -8.0 -4.0 L -11.0 -4.0 L -11.0 -5.0 L -15.0 -5.0 L -15.0 -6.0 L -23.0 -6.0 Z M -4.0 -5.0 L -5.0 -5.0 L -5.0 -3.0 L -4.0 -3.0 L -4.0 -4.0 L -3.0 -4.0 L -3.0 -3.0 L -1.0 -3.0 L -1.0 -4.0 L -3.0 -4.0 L -3.0 -5.0 Z M 24.0 -5.0 L 23.0 -5.0 L 23.0 -4.0 L 19.0 -4.0 L 19.0 -3.0 L 17.0 -3.0 L 17.0 -2.0 L 14.0 -2.0 L 14.0 -1.0 L 12.0 -1.0 L 12.0 0.0 L 8.0 1.0 L 8.0 3.0 L 7.0 3.0 L 7.0 2.0 L 6.0 2.0 L 6.0 3.0 L 4.0 3.0 L 4.0 4.0 L 3.0 4.0 L 3.0 3.0 L 1.0 3.0 L 1.0 4.0 L 2.0 4.0 L 1.0 6.0 L -3.0 7.0 L -3.0 8.0 L -4.0 8.0 L -4.0 9.0 L -6.0 9.0 L -6.0 10.0 L -9.0 10.0 L -9.0 11.0 L -11.0 11.0 L -11.0 12.0 L -10.0 12.0 L -9.0 14.0 L -8.0 14.0 L -9.0 12.0 L -7.0 12.0 L -7.0 11.0 L -3.0 10.0 L -3.0 9.0 L -2.0 9.0 L -2.0 8.0 L 0.0 8.0 L 0.0 7.0 L 2.0 7.0 L 2.0 8.0 L 1.0 8.0 L 1.0 13.0 L 3.0 13.0 L 3.0 12.0 L 2.0 12.0 L 2.0 10.0 L 3.0 10.0 L 3.0 6.0 L 2.0 6.0 L 2.0 5.0 L 5.0 5.0 L 5.0 4.0 L 10.0 4.0 L 10.0 3.0 L 9.0 3.0 L 10.0 1.0 L 13.0 1.0 L 13.0 0.0 L 15.0 0.0 L 15.0 -1.0 L 17.0 -1.0 L 17.0 -2.0 L 20.0 -2.0 L 20.0 -3.0 L 24.0 -3.0 L 24.0 -4.0 L 26.0 -4.0 L 26.0 -5.0 L 25.0 -5.0 Z M -6.0 -4.0 L -7.0 -4.0 L -7.0 -2.0 L -6.0 -2.0 L -6.0 -3.0 Z M -1.0 -2.0 L -2.0 -2.0 L -2.0 -1.0 L 0.0 0.0 L 0.0 2.0 L 2.0 2.0 L 0.0 -2.0 Z M -26.0 3.0 L -27.0 3.0 L -28.0 5.0 L -39.0 5.0 L -39.0 6.0 L -67.0 6.0 L -67.0 7.0 L -44.0 7.0 L -44.0 17.0 L -45.0 17.0 L -45.0 18.0 L -44.0 18.0 L -44.0 17.0 L -42.0 17.0 L -42.0 7.0 L -36.0 7.0 L -36.0 6.0 L -28.0 6.0 L -28.0 5.0 L -26.0 4.0 Z M 12.0 4.0 L 11.0 4.0 L 11.0 5.0 L 15.0 5.0 L 15.0 6.0 L 24.0 6.0 L 24.0 5.0 L 15.0 5.0 L 15.0 4.0 L 13.0 4.0 Z M -80.0 5.0 L -81.0 5.0 L -81.0 7.0 L -80.0 7.0 L -80.0 6.0 Z M 27.0 5.0 L 26.0 5.0 L 26.0 7.0 L 28.0 7.0 L 28.0 5.0 Z M 81.0 5.0 L 80.0 5.0 L 80.0 7.0 L 81.0 7.0 L 81.0 6.0 Z M -12.0 12.0 L -13.0 12.0 L -13.0 13.0 L -12.0 13.0 Z M -15.0 13.0 L -16.0 13.0 L -16.0 14.0 L -14.0 14.0 L -14.0 13.0 Z M 5.0 13.0 L 4.0 13.0 L 4.0 14.0 L 5.0 14.0 Z M -19.0 14.0 L -20.0 14.0 L -20.0 15.0 L -18.0 15.0 L -18.0 14.0 Z M -6.0 14.0 L -7.0 14.0 L -7.0 15.0 L -5.0 15.0 L -5.0 14.0 Z M 8.0 14.0 L 7.0 14.0 L 7.0 15.0 L 8.0 15.0 Z M -24.0 15.0 L -25.0 15.0 L -25.0 16.0 L -22.0 16.0 L -22.0 15.0 L -23.0 15.0 Z M -3.0 15.0 L -4.0 15.0 L -4.0 16.0 L -2.0 16.0 L -2.0 15.0 Z M 1.0 15.0 L 0.0 15.0 L 0.0 16.0 L 1.0 16.0 Z M 11.0 15.0 L 10.0 15.0 L 10.0 16.0 L 12.0 16.0 L 12.0 15.0 Z M -32.0 16.0 L -33.0 16.0 L -33.0 17.0 L -28.0 17.0 L -28.0 16.0 L -31.0 16.0 Z M 16.0 16.0 L 15.0 16.0 L 15.0 17.0 L 17.0 17.0 L 17.0 16.0 Z M -79.0 17.0 L -80.0 17.0 L -80.0 18.0 L -48.0 18.0 L -48.0 17.0 L -78.0 17.0 Z M 25.0 17.0 L 24.0 17.0 L 24.0 18.0 L 26.0 18.0 L 26.0 17.0 Z M 29.0 17.0 L 28.0 17.0 L 28.0 18.0 L 80.0 18.0 L 80.0 17.0 L 30.0 17.0 Z" fill="#8a8683" fill-rule="evenodd"/>
  <path d="M -80.0 -18.0 L -81.0 -18.0 L -81.0 -17.0 L -80.0 -17.0 Z M -27.0 -18.0 L -28.0 -18.0 L -28.0 -17.0 L -26.0 -17.0 L -26.0 -18.0 Z M -24.0 -18.0 L -25.0 -18.0 L -25.0 -17.0 L -15.0 -17.0 L -15.0 -16.0 L -11.0 -16.0 L -11.0 -17.0 L -15.0 -17.0 L -15.0 -18.0 L -23.0 -18.0 Z M 29.0 -18.0 L 28.0 -18.0 L 28.0 -17.0 L 22.0 -17.0 L 22.0 -16.0 L 18.0 -16.0 L 18.0 -15.0 L 12.0 -14.0 L 12.0 -13.0 L 10.0 -13.0 L 10.0 -12.0 L 12.0 -12.0 L 12.0 -13.0 L 15.0 -13.0 L 15.0 -14.0 L 18.0 -14.0 L 18.0 -15.0 L 22.0 -15.0 L 22.0 -16.0 L 28.0 -16.0 L 28.0 -17.0 L 44.0 -17.0 L 44.0 -18.0 L 30.0 -18.0 Z M 46.0 -18.0 L 45.0 -18.0 L 45.0 -17.0 L 48.0 -17.0 L 48.0 -18.0 L 47.0 -18.0 Z M 81.0 -18.0 L 80.0 -18.0 L 80.0 -17.0 L 81.0 -17.0 Z M 0.0 -17.0 L -1.0 -17.0 L -1.0 -16.0 L -2.0 -16.0 L -2.0 -14.0 L -4.0 -14.0 L -4.0 -13.0 L -1.0 -13.0 L -1.0 -16.0 L 4.0 -16.0 L 4.0 -15.0 L 7.0 -15.0 L 7.0 -14.0 L 9.0 -14.0 L 9.0 -13.0 L 10.0 -13.0 L 10.0 -15.0 L 7.0 -15.0 L 7.0 -16.0 L 1.0 -17.0 Z M -9.0 -16.0 L -10.0 -16.0 L -10.0 -15.0 L -7.0 -15.0 L -7.0 -14.0 L -4.0 -14.0 L -4.0 -15.0 L -7.0 -15.0 L -7.0 -16.0 L -8.0 -16.0 Z M 2.0 -8.0 L 1.0 -8.0 L 1.0 -7.0 L 2.0 -7.0 Z M -2.0 -6.0 L -3.0 -6.0 L -3.0 -4.0 L -2.0 -4.0 L -2.0 -5.0 Z M 27.0 -5.0 L 26.0 -5.0 L 26.0 -4.0 L 27.0 -4.0 Z M -5.0 -4.0 L -6.0 -4.0 L -6.0 -3.0 L -5.0 -3.0 Z M -7.0 -3.0 L -8.0 -3.0 L -8.0 -2.0 L -7.0 -2.0 Z M -1.0 -3.0 L -2.0 -3.0 L -2.0 -2.0 L -1.0 -2.0 Z M 2.0 2.0 L 1.0 2.0 L 1.0 3.0 L 2.0 3.0 Z M 8.0 2.0 L 7.0 2.0 L 7.0 3.0 L 8.0 3.0 Z M -26.0 4.0 L -27.0 4.0 L -27.0 5.0 L -26.0 5.0 Z M 3.0 5.0 L 2.0 5.0 L 2.0 6.0 L 3.0 6.0 Z M -11.0 12.0 L -12.0 12.0 L -12.0 13.0 L -14.0 13.0 L -14.0 14.0 L -10.0 13.0 L -10.0 15.0 L -7.0 15.0 L -7.0 16.0 L -4.0 16.0 L -4.0 17.0 L 1.0 17.0 L 1.0 16.0 L -4.0 16.0 L -4.0 15.0 L -7.0 15.0 L -7.0 14.0 L -9.0 14.0 L -10.0 12.0 Z M 2.0 13.0 L 1.0 13.0 L 1.0 16.0 L 2.0 16.0 L 2.0 14.0 L 4.0 14.0 L 4.0 15.0 L 7.0 15.0 L 7.0 16.0 L 10.0 16.0 L 10.0 15.0 L 7.0 15.0 L 7.0 14.0 L 4.0 14.0 L 4.0 13.0 L 3.0 13.0 Z M -17.0 14.0 L -18.0 14.0 L -18.0 15.0 L -22.0 15.0 L -22.0 16.0 L -28.0 16.0 L -28.0 17.0 L -44.0 17.0 L -44.0 18.0 L -28.0 18.0 L -28.0 17.0 L -22.0 17.0 L -22.0 16.0 L -18.0 16.0 L -18.0 15.0 L -15.0 15.0 L -15.0 14.0 L -16.0 14.0 Z M 12.0 16.0 L 11.0 16.0 L 11.0 17.0 L 15.0 17.0 L 15.0 18.0 L 24.0 18.0 L 24.0 17.0 L 15.0 17.0 L 15.0 16.0 L 13.0 16.0 Z M -80.0 17.0 L -81.0 17.0 L -81.0 18.0 L -80.0 18.0 Z M -47.0 17.0 L -48.0 17.0 L -48.0 18.0 L -45.0 18.0 L -45.0 17.0 L -46.0 17.0 Z M 27.0 17.0 L 26.0 17.0 L 26.0 18.0 L 28.0 18.0 L 28.0 17.0 Z M 81.0 17.0 L 80.0 17.0 L 80.0 18.0 L 81.0 18.0 Z" fill="#5d5a57" fill-rule="evenodd"/>
</svg>
